<?xml version="1.0" encoding="UTF-8"?>
<svg width="512" height="512" viewBox="0 0 512 512" fill="none" xmlns="http://www.w3.org/2000/svg">
  <!-- Chat bubble background -->
  <path d="M256 0C114.6 0 0 114.6 0 256c0 46.8 12.6 90.7 34.6 128.5C32.8 407.5 9.3 448.7 0.3 488c-1.3 5.8 0.7 11.9 5.3 15.9C9.3 507.3 14.6 509 20 509c0.9 0 1.8-0.1 2.7-0.2c41.8-7.1 78.1-26.4 107.3-49.7C164.1 477.5 208.9 490 256 490c141.4 0 256-114.6 256-256S397.4 0 256 0z" fill="#3498DB"/>
  
  <!-- Robot head -->
  <path d="M256 140c-66.3 0-120 53.7-120 120v60c0 33.1 26.9 60 60 60h120c33.1 0 60-26.9 60-60v-60c0-66.3-53.7-120-120-120z" fill="#BDC3C7"/>
  <path d="M256 170c-49.7 0-90 40.3-90 90v60c0 16.6 13.4 30 30 30h120c16.6 0 30-13.4 30-30v-60c0-49.7-40.3-90-90-90z" fill="#ECF0F1"/>
  
  <!-- Robot antenna -->
  <path d="M256 140v-30c0-8.3 6.7-15 15-15h0c8.3 0 15 6.7 15 15v30h-30z" fill="#BDC3C7"/>
  
  <!-- Robot ears -->
  <path d="M166 230c-8.3 0-15 6.7-15 15v30c0 8.3 6.7 15 15 15h0c8.3 0 15-6.7 15-15v-30c0-8.3-6.7-15-15-15z" fill="#BDC3C7"/>
  <path d="M346 230c8.3 0 15 6.7 15 15v30c0 8.3-6.7 15-15 15h0c-8.3 0-15-6.7-15-15v-30c0-8.3 6.7-15 15-15z" fill="#BDC3C7"/>
  
  <!-- Robot face -->
  <path d="M196 260c0 16.6 13.4 30 30 30s30-13.4 30-30h-60z" fill="#2C3E50"/>
  <path d="M256 260c0 16.6 13.4 30 30 30s30-13.4 30-30h-60z" fill="#2C3E50"/>
  
  <!-- Robot eyes -->
  <circle cx="211" cy="260" r="15" fill="#3498DB"/>
  <circle cx="301" cy="260" r="15" fill="#3498DB"/>
  
  <!-- Robot smile -->
  <path d="M226 290c10 10 50 10 60 0" stroke="#3498DB" stroke-width="5" stroke-linecap="round"/>
</svg>